<?xml version="1.0" standalone="no"?>
<!DOCTYPE svg PUBLIC "-//W3C//DTD SVG 20010904//EN"
 "http://www.w3.org/TR/2001/REC-SVG-20010904/DTD/svg10.dtd">
<svg version="1.0" xmlns="http://www.w3.org/2000/svg"
 width="700.000000pt" height="700.000000pt" viewBox="0 0 700.000000 700.000000"
 preserveAspectRatio="xMidYMid meet">
<metadata>
Created by potrace 1.14, written by Peter Selinger 2001-2017
</metadata>
<g transform="translate(0.000000,700.000000) scale(0.100000,-0.100000)"
fill="#000000" stroke="none">
<path d="M2970 5464 c-1037 -62 -1591 -337 -1731 -859 -29 -108 -32 -329 -5
-425 28 -102 74 -185 144 -261 284 -307 792 -424 2067 -479 1078 -46 1552
-147 1803 -385 132 -124 179 -248 170 -449 -9 -190 -66 -321 -203 -458 -269
-270 -755 -398 -1507 -398 -703 0 -1649 143 -2215 335 -73 25 -143 45 -155 45
-59 0 -97 -68 -79 -137 20 -75 81 -111 307 -182 633 -198 1602 -319 2325 -290
449 18 741 64 1029 164 422 147 685 389 770 710 42 158 37 383 -11 529 -46
139 -182 310 -318 400 -318 210 -857 326 -1746 376 -1002 56 -1273 86 -1575
171 -193 55 -379 163 -450 260 -57 79 -74 141 -74 269 0 82 5 132 18 175 78
261 338 452 765 560 305 77 817 116 1240 95 664 -33 1156 -126 1648 -311 58
-22 65 -23 105 -9 73 26 109 117 71 180 -54 92 -663 254 -1218 324 -260 33
-481 47 -790 50 -176 2 -349 2 -385 0z"/>
</g>
</svg>
