<svg width="257" height="78" viewBox="0 0 257 78" fill="none" xmlns="http://www.w3.org/2000/svg">
<path d="M55.7422 51.8516C55.7422 53.5182 55.4427 55.0026 54.8438 56.3047C54.2448 57.5807 53.4115 58.7005 52.3438 59.6641C51.276 60.6016 50 61.4089 48.5156 62.0859C47.0573 62.737 45.4688 63.2708 43.75 63.6875C42.0312 64.0781 40.1953 64.3516 38.2422 64.5078C36.3151 64.6901 34.362 64.7812 32.3828 64.7812C29.5964 64.7812 26.8229 64.638 24.0625 64.3516C21.3021 64.0651 18.724 63.7135 16.3281 63.2969C13.9323 62.8542 11.8099 62.3854 9.96094 61.8906C8.13802 61.3958 6.75781 60.9271 5.82031 60.4844C5.45573 60.3021 5.18229 60.0807 5 59.8203C4.84375 59.5339 4.76562 59.2474 4.76562 58.9609C4.76562 58.6484 4.84375 58.388 5 58.1797C5.18229 57.9453 5.44271 57.8281 5.78125 57.8281C5.9375 57.8281 6.11979 57.8672 6.32812 57.9453C7.34375 58.362 8.80208 58.8177 10.7031 59.3125C12.6042 59.8073 14.7526 60.276 17.1484 60.7188C19.5703 61.1354 22.1354 61.487 24.8438 61.7734C27.5781 62.0599 30.2865 62.2031 32.9688 62.2031C35.5729 62.2031 38.0469 62.0339 40.3906 61.6953C42.7344 61.3568 44.7917 60.7839 46.5625 59.9766C48.3594 59.1693 49.7786 58.1016 50.8203 56.7734C51.888 55.4453 52.4219 53.8047 52.4219 51.8516C52.4219 50.2109 51.9661 48.8698 51.0547 47.8281C50.1693 46.7604 48.9583 45.9141 47.4219 45.2891C45.8854 44.638 44.0885 44.1562 42.0312 43.8438C39.974 43.5052 37.7865 43.2578 35.4688 43.1016C33.1771 42.9193 30.8073 42.7891 28.3594 42.7109C25.9115 42.6068 23.5286 42.4505 21.2109 42.2422C18.9193 42.0339 16.7448 41.7344 14.6875 41.3438C12.6302 40.9531 10.8333 40.3802 9.29688 39.625C7.76042 38.8698 6.53646 37.8932 5.625 36.6953C4.73958 35.4974 4.29688 33.987 4.29688 32.1641C4.29688 30.4974 4.60938 29.026 5.23438 27.75C5.85938 26.474 6.71875 25.3802 7.8125 24.4688C8.90625 23.5312 10.1953 22.763 11.6797 22.1641C13.1901 21.5391 14.8177 21.0443 16.5625 20.6797C18.3333 20.3151 20.1823 20.0547 22.1094 19.8984C24.0625 19.7422 26.0156 19.6641 27.9688 19.6641C30.3906 19.6641 32.7734 19.7812 35.1172 20.0156C37.4609 20.224 39.6615 20.5234 41.7188 20.9141C43.776 21.2786 45.625 21.6953 47.2656 22.1641C48.9062 22.6068 50.2214 23.0625 51.2109 23.5312C51.4193 23.6354 51.5755 23.7917 51.6797 24C51.7839 24.1823 51.8359 24.3776 51.8359 24.5859C51.8359 24.9505 51.7057 25.2891 51.4453 25.6016C51.2109 25.9141 50.8724 26.0703 50.4297 26.0703C50.1693 26.0703 49.9479 26.0182 49.7656 25.9141C48.3854 25.3411 46.849 24.8333 45.1562 24.3906C43.4896 23.9219 41.7188 23.5312 39.8438 23.2188C37.9688 22.9062 36.0286 22.6719 34.0234 22.5156C32.0443 22.3333 30.0781 22.2422 28.125 22.2422C25.4167 22.2422 22.8255 22.3984 20.3516 22.7109C17.8776 23.0234 15.6901 23.5573 13.7891 24.3125C11.9141 25.0417 10.4167 26.0312 9.29688 27.2812C8.17708 28.5052 7.61719 30.0547 7.61719 31.9297C7.61719 33.362 8.0599 34.5339 8.94531 35.4453C9.85677 36.3307 11.0807 37.0469 12.6172 37.5938C14.1536 38.1406 15.9505 38.5573 18.0078 38.8438C20.0651 39.1042 22.2396 39.3125 24.5312 39.4688C26.849 39.625 29.2318 39.7682 31.6797 39.8984C34.1276 40.0026 36.4974 40.1979 38.7891 40.4844C41.1068 40.7448 43.2943 41.1224 45.3516 41.6172C47.4089 42.0859 49.2057 42.75 50.7422 43.6094C52.2786 44.4688 53.4896 45.5755 54.375 46.9297C55.2865 48.2578 55.7422 49.8984 55.7422 51.8516ZM100.977 61.1875C100.977 61.526 100.951 61.8646 100.898 62.2031C100.846 62.5417 100.755 62.8411 100.625 63.1016C100.521 63.362 100.365 63.5833 100.156 63.7656C99.9479 63.9219 99.6875 64 99.375 64C98.9844 64 98.6849 63.9219 98.4766 63.7656C98.2943 63.5833 98.151 63.362 98.0469 63.1016C97.9427 62.8411 97.8776 62.5417 97.8516 62.2031C97.8516 61.8646 97.8516 61.526 97.8516 61.1875V47.6719C97.8516 45.6406 97.6953 43.8698 97.3828 42.3594C97.0964 40.849 96.5104 39.599 95.625 38.6094C94.7656 37.5938 93.5547 36.8385 91.9922 36.3438C90.4557 35.849 88.4375 35.6016 85.9375 35.6016C84.401 35.6016 82.7734 35.7318 81.0547 35.9922C79.3359 36.2266 77.6953 36.6562 76.1328 37.2812C74.5703 37.8802 73.1901 38.6875 71.9922 39.7031C70.7943 40.7188 69.9609 41.9948 69.4922 43.5312V61.1875C69.4922 61.526 69.4792 61.8646 69.4531 62.2031C69.4271 62.5417 69.362 62.8411 69.2578 63.1016C69.1536 63.362 68.9974 63.5833 68.7891 63.7656C68.6068 63.9219 68.3594 64 68.0469 64C67.6823 64 67.3828 63.9219 67.1484 63.7656C66.9401 63.5833 66.7708 63.362 66.6406 63.1016C66.5365 62.8411 66.4583 62.5417 66.4062 62.2031C66.3802 61.8646 66.3672 61.526 66.3672 61.1875V35.875C66.3672 35.4323 66.4583 35.0286 66.6406 34.6641C66.8229 34.2734 67.2786 34.0781 68.0078 34.0781C68.6589 34.0781 69.0625 34.2604 69.2188 34.625C69.401 34.9635 69.4922 35.3802 69.4922 35.875V40.7969C70.2214 39.1302 71.237 37.8021 72.5391 36.8125C73.8411 35.7969 75.2604 35.0417 76.7969 34.5469C78.3594 34.026 79.9349 33.6875 81.5234 33.5312C83.138 33.375 84.6094 33.2969 85.9375 33.2969C88.75 33.2969 91.1068 33.5443 93.0078 34.0391C94.9349 34.5078 96.4844 35.3021 97.6562 36.4219C98.8542 37.5417 99.7005 39.026 100.195 40.875C100.716 42.6979 100.977 44.9635 100.977 47.6719V61.1875ZM115.078 55.25C115.078 56.5 115.391 57.5547 116.016 58.4141C116.667 59.2734 117.565 59.9766 118.711 60.5234C119.857 61.0703 121.211 61.474 122.773 61.7344C124.362 61.9688 126.094 62.0859 127.969 62.0859C130.26 62.0859 132.292 61.9297 134.062 61.6172C135.833 61.2786 137.383 60.862 138.711 60.3672C140.039 59.8724 141.159 59.3385 142.07 58.7656C142.982 58.1667 143.737 57.5938 144.336 57.0469V49.1953C141.732 48.8307 139.036 48.4922 136.25 48.1797C133.464 47.8411 130.651 47.6719 127.812 47.6719C125.807 47.6719 124.01 47.7891 122.422 48.0234C120.859 48.2578 119.531 48.6615 118.438 49.2344C117.344 49.8073 116.51 50.5885 115.938 51.5781C115.365 52.5417 115.078 53.7656 115.078 55.25ZM131.68 35.6016C129.18 35.6016 127.044 35.6667 125.273 35.7969C123.503 35.9271 121.979 36.0964 120.703 36.3047C119.453 36.513 118.398 36.7344 117.539 36.9688C116.68 37.2031 115.924 37.4375 115.273 37.6719C114.961 37.6719 114.674 37.5156 114.414 37.2031C114.154 36.8906 114.023 36.5521 114.023 36.1875C114.023 35.849 114.18 35.6016 114.492 35.4453C114.701 35.3411 115.182 35.1719 115.938 34.9375C116.719 34.7031 117.799 34.4688 119.18 34.2344C120.586 33.974 122.318 33.7526 124.375 33.5703C126.458 33.388 128.906 33.2969 131.719 33.2969C133.047 33.2969 134.362 33.388 135.664 33.5703C136.966 33.7266 138.19 34.026 139.336 34.4688C140.508 34.9115 141.589 35.5234 142.578 36.3047C143.594 37.0859 144.453 38.1016 145.156 39.3516C145.885 40.5755 146.458 42.0729 146.875 43.8438C147.292 45.5885 147.5 47.6458 147.5 50.0156V61.2656C147.5 61.5781 147.487 61.8906 147.461 62.2031C147.435 62.5156 147.357 62.8151 147.227 63.1016C147.122 63.362 146.966 63.5833 146.758 63.7656C146.549 63.9219 146.263 64 145.898 64C145.299 64 144.883 63.7266 144.648 63.1797C144.44 62.6328 144.336 61.9427 144.336 61.1094V58.4141C143.815 59.0651 143.138 59.7422 142.305 60.4453C141.471 61.1484 140.417 61.7995 139.141 62.3984C137.865 62.9714 136.341 63.4531 134.57 63.8438C132.799 64.2083 130.703 64.3906 128.281 64.3906C126.016 64.3906 123.88 64.2214 121.875 63.8828C119.896 63.5443 118.164 63.0104 116.68 62.2812C115.221 61.5521 114.062 60.6146 113.203 59.4688C112.37 58.2969 111.953 56.8906 111.953 55.25C111.953 53.349 112.344 51.7734 113.125 50.5234C113.932 49.2474 115.039 48.2318 116.445 47.4766C117.852 46.6953 119.492 46.1484 121.367 45.8359C123.268 45.5234 125.312 45.3672 127.5 45.3672C129.141 45.3672 130.781 45.4323 132.422 45.5625C134.089 45.6667 135.664 45.8359 137.148 46.0703C138.633 46.2786 139.987 46.5521 141.211 46.8906C142.461 47.2031 143.503 47.5807 144.336 48.0234C144.336 45.3672 143.984 43.2318 143.281 41.6172C142.578 40.0026 141.641 38.7526 140.469 37.8672C139.297 36.9557 137.943 36.3568 136.406 36.0703C134.896 35.7578 133.32 35.6016 131.68 35.6016ZM180.195 33.2969C182.539 33.2969 184.753 33.5443 186.836 34.0391C188.945 34.5078 190.781 35.3281 192.344 36.5C193.932 37.6719 195.182 39.2344 196.094 41.1875C197.031 43.1406 197.5 45.5885 197.5 48.5312C197.5 51.4479 197.109 53.9219 196.328 55.9531C195.573 57.9583 194.453 59.5859 192.969 60.8359C191.51 62.0859 189.701 62.9974 187.539 63.5703C185.404 64.1172 182.956 64.3906 180.195 64.3906C178.086 64.3906 176.146 64.2604 174.375 64C172.604 63.7396 170.99 63.4141 169.531 63.0234C168.099 62.6068 166.81 62.151 165.664 61.6562C164.518 61.1615 163.503 60.6797 162.617 60.2109L162.539 74.4297C162.539 74.7682 162.526 75.0938 162.5 75.4062C162.5 75.7448 162.448 76.0443 162.344 76.3047C162.24 76.5651 162.083 76.7734 161.875 76.9297C161.693 77.0859 161.406 77.1641 161.016 77.1641C160.625 77.1641 160.326 77.0729 160.117 76.8906C159.935 76.7344 159.792 76.513 159.688 76.2266C159.583 75.9661 159.518 75.6536 159.492 75.2891C159.492 74.9505 159.492 74.5859 159.492 74.1953V35.9922C159.492 35.1589 159.648 34.638 159.961 34.4297C160.273 34.1953 160.612 34.0781 160.977 34.0781C161.419 34.0781 161.771 34.1953 162.031 34.4297C162.292 34.638 162.422 35.1589 162.422 35.9922V41.1484C162.734 40.0547 163.268 39.1042 164.023 38.2969C164.779 37.4635 165.664 36.7604 166.68 36.1875C167.695 35.5885 168.789 35.1068 169.961 34.7422C171.159 34.3516 172.357 34.0521 173.555 33.8438C174.779 33.6354 175.964 33.4922 177.109 33.4141C178.255 33.3359 179.284 33.2969 180.195 33.2969ZM180.195 35.6016C178.633 35.6276 176.927 35.7578 175.078 35.9922C173.229 36.2005 171.458 36.5911 169.766 37.1641C168.073 37.737 166.576 38.5312 165.273 39.5469C163.971 40.5625 163.086 41.8906 162.617 43.5312V58.5312C163.737 58.9479 164.935 59.3776 166.211 59.8203C167.513 60.237 168.893 60.6146 170.352 60.9531C171.81 61.2917 173.359 61.5651 175 61.7734C176.641 61.9818 178.372 62.0859 180.195 62.0859C182.695 62.0859 184.831 61.8255 186.602 61.3047C188.398 60.7839 189.87 59.9766 191.016 58.8828C192.188 57.763 193.034 56.3568 193.555 54.6641C194.102 52.9453 194.375 50.901 194.375 48.5312C194.375 46.0833 193.997 44.026 193.242 42.3594C192.513 40.6927 191.51 39.3646 190.234 38.375C188.958 37.3854 187.448 36.6823 185.703 36.2656C183.984 35.8229 182.148 35.6016 180.195 35.6016ZM228.008 40.7188L247.383 21.3047C247.904 20.7839 248.424 20.5234 248.945 20.5234C249.31 20.5234 249.596 20.6536 249.805 20.9141C250.039 21.1745 250.156 21.487 250.156 21.8516C250.156 22.0599 250.104 22.2943 250 22.5547C249.896 22.8151 249.727 23.0625 249.492 23.2969L230.039 42.6328L249.844 61.0703C250.182 61.3828 250.417 61.7083 250.547 62.0469C250.703 62.3594 250.781 62.6458 250.781 62.9062C250.781 63.2188 250.677 63.4792 250.469 63.6875C250.286 63.8958 250.039 64 249.727 64C249.154 64 248.542 63.6875 247.891 63.0625L228.008 44.5469L208.125 63.1016C207.734 63.4661 207.396 63.7135 207.109 63.8438C206.823 63.9479 206.549 64 206.289 64C205.951 64 205.677 63.9089 205.469 63.7266C205.286 63.5182 205.195 63.2578 205.195 62.9453C205.195 62.3464 205.521 61.7344 206.172 61.1094L225.977 42.6328L206.523 23.2969C206.055 22.8281 205.82 22.3464 205.82 21.8516C205.82 21.487 205.938 21.1745 206.172 20.9141C206.406 20.6536 206.706 20.5234 207.07 20.5234C207.591 20.5234 208.112 20.7839 208.633 21.3047L228.008 40.7188Z" fill="black"/>
<circle cx="228" cy="19" r="10" fill="#F23232"/>
</svg>
